<svg width="200" height="200" viewBox="0 0 200 200" fill="none" xmlns="http://www.w3.org/2000/svg">
<g clip-path="url(#clip0_19_94)">
<rect width="200" height="200" rx="100" fill="url(#paint0_linear_19_94)"/>
<g filter="url(#filter0_i_19_94)">
<path d="M18.9894 134.412C18.9894 132.297 19.7214 130.508 21.1854 129.044C22.6494 127.58 24.398 126.848 26.4314 126.848C28.4647 126.848 30.1727 127.58 31.5554 129.044C33.0194 130.508 33.7514 132.297 33.7514 134.412C33.7514 136.771 33.0194 138.641 31.5554 140.024C30.1727 141.407 28.4647 142.098 26.4314 142.098C24.398 142.098 22.6494 141.407 21.1854 140.024C19.7214 138.641 18.9894 136.771 18.9894 134.412ZM50.5797 64.14L63.6337 109.402C63.9591 110.378 64.2844 111.639 64.6097 113.184C65.0164 114.648 65.4231 116.234 65.8297 117.942C66.2364 119.569 66.6024 121.236 66.9277 122.944C67.2531 124.571 67.4971 126.116 67.6597 127.58H67.9037C68.1477 126.116 68.4324 124.571 68.7577 122.944C69.1644 121.236 69.5711 119.569 69.9777 117.942C70.3844 116.234 70.7504 114.648 71.0757 113.184C71.4824 111.72 71.8484 110.459 72.1737 109.402L85.5937 64.14H95.5977L109.506 109.402C109.831 110.459 110.156 111.72 110.482 113.184C110.888 114.648 111.254 116.193 111.58 117.82C111.986 119.447 112.352 121.114 112.678 122.822C113.084 124.53 113.41 126.116 113.654 127.58H113.898C114.142 126.035 114.426 124.408 114.752 122.7C115.158 120.992 115.565 119.325 115.972 117.698C116.378 115.99 116.744 114.445 117.07 113.062C117.476 111.598 117.802 110.378 118.046 109.402L130.612 64.14H141.958L119.388 141H108.042L96.3297 100.13C95.7604 98.0967 95.1911 96.1853 94.6217 94.396C94.1337 92.6067 93.6457 90.8987 93.1577 89.272C92.7511 87.6453 92.3037 86.0187 91.8157 84.392C91.4091 82.684 90.9617 80.8947 90.4737 79.024H90.2297C89.4164 82.684 88.5217 86.344 87.5457 90.004C86.5697 93.664 85.6344 97.0393 84.7397 100.13L73.3937 141H62.1697L39.1117 64.14H50.5797ZM163.963 64.14V141H152.739V64.14H163.963Z" fill="white"/>
</g>
</g>
<defs>
<filter id="filter0_i_19_94" x="18.9894" y="64.14" width="145.974" height="80.958" filterUnits="userSpaceOnUse" color-interpolation-filters="sRGB">
<feFlood flood-opacity="0" result="BackgroundImageFix"/>
<feBlend mode="normal" in="SourceGraphic" in2="BackgroundImageFix" result="shape"/>
<feColorMatrix in="SourceAlpha" type="matrix" values="0 0 0 0 0 0 0 0 0 0 0 0 0 0 0 0 0 0 127 0" result="hardAlpha"/>
<feOffset dx="1" dy="3"/>
<feGaussianBlur stdDeviation="1.5"/>
<feComposite in2="hardAlpha" operator="arithmetic" k2="-1" k3="1"/>
<feColorMatrix type="matrix" values="0 0 0 0 0.171181 0 0 0 0 0.202957 0 0 0 0 0.483333 0 0 0 0.35 0"/>
<feBlend mode="normal" in2="shape" result="effect1_innerShadow_19_94"/>
</filter>
<linearGradient id="paint0_linear_19_94" x1="100" y1="0" x2="100" y2="200" gradientUnits="userSpaceOnUse">
<stop stop-color="#3D4EE7"/>
<stop offset="1" stop-color="#2A38B9"/>
</linearGradient>
<clipPath id="clip0_19_94">
<rect width="200" height="200" rx="100" fill="white"/>
</clipPath>
</defs>
</svg>
